# xmcd
#
# Track frame offsets:
#   150
#   13072
#   24507
#   39395
#   54335
#   66070
#   80517
#   94600
#   112772
#   126650
#   140872
#   158095
#   171862
#
# Disc length: 2502 seconds
#
# Revision: 0
# Processed by: cddbd v1.5.2PL0 Copyright (c) Steve Scherf et al.
# Submitted via: uFREEDB ActiveX Control 1.5
#
DISCID=a709c40d
DTITLE=FELIPE and FALCÃO - VOLUME VIII
DYEAR=2007
DGENRE=Country
TTITLE0=VANERÃO DA MULHER FEIA
TTITLE1=COM MEU TIO JOÃO,COM MEU TIO JOSÉ
TTITLE2=SAUDADE E SURRA DE REIO
TTITLE3=FALTA O PINTO
TTITLE4=FOLHA DE URTIGA
TTITLE5=PEÃO BABACA
TTITLE6=MEU TAXÍ E UM CACETE
TTITLE7=SEU AMOR É POUCO
TTITLE8=VOU PRA GALERA
TTITLE9=RIO VERMELHO
TTITLE10=SE NÃO FOR PEDIR DEMAIS
TTITLE11=EU BEBO SIM
TTITLE12=ESTRELA DE OURO
EXTD=
EXTT0=
EXTT1=
EXTT2=
EXTT3=
EXTT4=
EXTT5=
EXTT6=
EXTT7=
EXTT8=
EXTT9=
EXTT10=
EXTT11=
EXTT12=
PLAYORDER=
